<?xml version="1.0" standalone="no"?>
<!DOCTYPE svg PUBLIC "-//W3C//DTD SVG 20010904//EN"
 "http://www.w3.org/TR/2001/REC-SVG-20010904/DTD/svg10.dtd">
<svg version="1.0" xmlns="http://www.w3.org/2000/svg"
 width="512.000000pt" height="512.000000pt" viewBox="0 0 512.000000 512.000000"
 preserveAspectRatio="xMidYMid meet">
<metadata>
Created by potrace 1.14, written by Peter Selinger 2001-2017
</metadata>
<g transform="translate(0.000000,512.000000) scale(0.100000,-0.100000)"
fill="#000000" stroke="none">
<path d="M2378 5115 c-2 -3 -38 -7 -79 -9 -41 -2 -74 -5 -74 -6 0 -1 -13 -4
-30 -6 -785 -115 -1484 -594 -1866 -1279 -137 -246 -250 -554 -283 -779 -4
-21 -8 -41 -10 -45 -4 -6 -12 -67 -26 -201 -8 -81 -5 -463 5 -520 3 -19 13
-78 21 -130 99 -620 435 -1188 939 -1590 128 -102 308 -215 462 -290 212 -104
524 -202 718 -226 22 -3 46 -7 53 -9 79 -26 557 -26 702 -1 14 3 42 7 64 11
265 39 632 168 851 298 469 280 795 626 1030 1096 57 113 151 351 161 408 2
12 9 34 14 48 5 14 12 39 15 55 3 17 12 58 20 92 7 35 16 81 20 103 3 23 7 50
9 61 20 103 28 469 14 614 -69 685 -407 1312 -942 1742 -229 185 -488 329
-756 423 -167 58 -257 79 -550 131 -37 6 -476 15 -482 9z"/>
</g>
</svg>
